<svg xmlns="http://www.w3.org/2000/svg" viewBox="0 0 678.25 187.62"><defs><style>.cls-1{fill:#9dd2be;}.cls-2{fill:#79a7a4;}.cls-3{fill:#fff;}.cls-4{fill:#1d1d1b;}.cls-5{fill:#9dd1be;}</style></defs><title>logo_svg</title><g id="Laag_2" data-name="Laag 2"><g id="Laag_2-2" data-name="Laag 2"><path class="cls-1" d="M184.63,25.82c-5-11.36-13.74-17.34-17.49-19.89l-.88-.61-.37-.23C154.15-.91,143-1.61,132.75,3,121.68,8,112,19,103.9,35.71a150.9,150.9,0,0,0-8.05,20.62C69.73,19.27,55.54,18.17,37.27,20.85c-12.85,1.88-26.41,12-33,24.7-5.5,10.61-5.72,22-.63,32C14.41,98.84,37.16,120.16,71.27,141a393.94,393.94,0,0,0,47.94,24.88l2,.83,1.41-1.62c.08-.09,1.84-2.11,4.78-5.72q1.56-1.92,3.53-4.4-1.14-1.82-2.44-3.86c-.31-.49-.64-1-1-1.5-1.27,1.62-2.44,3.09-3.49,4.39-2,2.42-3.49,4.27-4.51,5.48C106.29,153.65,31.45,119.22,9,74.89c-5.38-10.63-2.64-20.32.61-26.57C15.36,37.26,27.08,28.4,38.14,26.78a66.77,66.77,0,0,1,9.62-.93,28.17,28.17,0,0,1,8,1.12,29.86,29.86,0,0,1,5.68,2.36C70.09,33.91,80.39,44,94.51,65l3.73,5.53L99.9,64a145.81,145.81,0,0,1,9.4-25.7,94.74,94.74,0,0,1,8.53-14.48c1.22-1.7,2.48-3.27,3.75-4.73A41.13,41.13,0,0,1,135.21,8.47C143.67,4.66,153,5.29,163,10.34l.78.54c7.54,5.15,30.49,20.81,10.78,63.58-4.29,9.32-9.13,18.38-14.13,26.91-1.17,2-2.36,4-3.55,6h0c.34,1,.68,2,1,3,.43,1.3.91,2.81,1.42,4.46,1.23-2,2.47-4,3.7-6A326.37,326.37,0,0,0,180,77C189.2,57,190.76,39.78,184.63,25.82Z"/><path class="cls-2" d="M201,180.43s-8.4,8.09-24.29,7.1c-23.88,0-39.51-14.9-42.7-18.83a66.25,66.25,0,0,1-6.61-9.28l0-.07c-.78-1.24-1.6-2.59-2.48-4-.29-.44-.53-.82-.75-1.14L124,154l-.24-.34c-.27-.43-.47-.75-.61-1a2.48,2.48,0,0,0-.19-.31,1,1,0,0,1-.11-.17.76.76,0,0,1-.12-.19,4.25,4.25,0,0,1-.41-.63c-.06-.09-.13-.16-.19-.26l-.13-.19-.17-.25c-8.31-12.34-20.73-27.3-40-33.69-3.79-.23-32-2.48-40.63-20.94-6-12.82-.94-30,15-51.09.76-3.37.93-9.44-.49-18a29.86,29.86,0,0,1,5.68,2.36c1.43,11.34-.06,17-.19,17.51l-.13.49-.32.4C46.68,66.3,40.16,81.15,46.07,93.78c7.7,16.47,36.13,17.91,36.41,17.91l.38,0,.33.1c20.21,6.58,33.55,22.09,42.22,34.66.73,1.07,1.44,2.11,2.1,3.12.33.51.66,1,1,1.5q1.3,2,2.44,3.86l1,1.67c2.34,3.77,4.37,7,5.57,8.08,14.34,12.84,29.36,18.84,43.48,17.39,9-.91,13.23-3.46,14.75-4.5a6.23,6.23,0,0,0,2.27-5.42c0-5.26-15.51-11-18.24-13.92,0,0-8.12-4.52-13.24-18,0,0-4.11-15.28-7.25-25.48-.51-1.65-1-3.16-1.42-4.46-.35-1-.69-2-1-3h0c-.4-1.15-.79-2.29-1.19-3.42a404.68,404.68,0,0,0-27.26-60.83,130.82,130.82,0,0,1-10.58-19.24c1.22-1.7,2.48-3.27,3.75-4.73a128.09,128.09,0,0,0,11.3,21.08l.09.15a402.92,402.92,0,0,1,26,57c.09.21.18.44.26.66.41,1.11.81,2.23,1.21,3.35l1.11,3.17h0c.5,1.44,1,2.84,1.49,4.21,3.14,8.75,6.09,16.45,8.57,26.76,4.66,12.22,15.59,22.35,17.9,23.35s11.19,4.67,13.58,11.54C204.12,173.45,202.9,177.36,201,180.43Z"/><path class="cls-2" d="M180,166.89Z"/><path class="cls-3" d="M119.23,161.39Z"/><path class="cls-4" d="M244.25,33.9h6.82c6.27,0,8.33,4.46,8.33,9,0,6-3.66,8.92-9.34,8.92h-3.83V64.19h-2Zm2,1.68v14.6h3.53c5.3,0,7.53-2.9,7.53-7.19,0-5.68-3-7.4-6.1-7.4Z"/><path class="cls-4" d="M287.07,35.58H274.24v12.2h9.21v1.68h-9.21v13h13.13v1.68h-15.1V33.9h14.81Z"/><path class="cls-4" d="M298.86,33.9h7.57a8.1,8.1,0,0,1,7.24,4.29c1,1.89,1.85,5.34,1.85,10.85,0,7.7-1.89,11-2.44,11.78-1.39,2-3.53,3.37-7.24,3.37h-7Zm2,28.61h3.74c3.32,0,6.1-.46,7.57-3.87,1.18-2.69,1.26-6.69,1.26-9.59s-.08-7.28-1.39-9.89c-1.6-3.2-4.25-3.58-7.45-3.58h-3.74Z"/><path class="cls-4" d="M339.24,35.58H335V62.5h4.21v1.68H328.85V62.5h4.21V35.58h-4.21V33.9h10.39Z"/><path class="cls-4" d="M367.93,39.62a4.92,4.92,0,0,0-5-4.63c-7,0-7.57,9.13-7.57,14.26s.5,13.84,7.32,13.84a5.59,5.59,0,0,0,5.68-5.47h2c-.42,4.46-3.32,7.15-7.82,7.15-8,0-9.25-9.17-9.25-15.31,0-6.44,1.14-16.15,9.67-16.15a6.84,6.84,0,0,1,7,6.31Z"/><path class="cls-4" d="M397.51,33.9V56.4c0,6-4.54,8.37-7.91,8.37a8.05,8.05,0,0,1-8-7.91v-23h2v21.5c0,5.76,2.73,7.7,6,7.7,3.45,0,5.93-2.1,5.93-7V33.9Z"/><path class="cls-4" d="M410.81,33.9H418c5.09,0,8,3.41,8,8.33a8.54,8.54,0,0,1-5.85,8.41l8.16,13.55h-2.48L418.34,51.1h-5.55V64.19h-2Zm2,15.52h4.92c2.69,0,6.23-2.06,6.23-7.36,0-3.53-1.68-6.48-5.93-6.48h-5.22Z"/><path class="cls-4" d="M453.67,35.58H440.84v12.2h9.21v1.68h-9.21v13H454v1.68h-15.1V33.9h14.81Z"/><path class="cls-4" d="M466.38,33.9h6.82c6.27,0,8.33,4.46,8.33,9,0,6-3.66,8.92-9.34,8.92h-3.83V64.19h-2Zm2,1.68v14.6h3.53c5.3,0,7.53-2.9,7.53-7.19,0-5.68-3-7.4-6.1-7.4Z"/><path class="cls-4" d="M494.11,33.9h7.19c5.09,0,8,3.41,8,8.33a8.54,8.54,0,0,1-5.85,8.41l8.16,13.55h-2.48L501.64,51.1h-5.55V64.19h-2Zm2,15.52H501c2.69,0,6.23-2.06,6.23-7.36,0-3.53-1.68-6.48-5.93-6.48h-5.22Z"/><path class="cls-4" d="M538.62,64.19h-2.23L533.65,55H523.35l-2.78,9.21h-2.19l10.1-31.51Zm-14.85-10.9h9.46l-4.75-15.23Z"/><path class="cls-4" d="M551.45,47.78c2.94,0,5.59-3.58,7.19-5.89a39.44,39.44,0,0,0,4.29-8.12L565,34.86c-1.18,2.06-2.4,4.08-3.62,6.1-1.85,3.07-4,6-7.15,7.82l13,15.4h-2.73l-12-14.72h-1V64.19h-2V33.9h2Z"/><path class="cls-4" d="M593.69,35.58h-8.75V64.19h-2V35.58h-8.71V33.9h19.44Z"/><path class="cls-4" d="M616.91,35.58H612.7V62.5h4.21v1.68H606.52V62.5h4.21V35.58h-4.21V33.9h10.39Z"/><path class="cls-4" d="M646.19,33.9v20.7c0,7.32-2.65,10.18-8.16,10.18-4.88,0-7.57-2.61-7.57-9.72V51.82h2v4.33c0,4.8,1.73,7.07,5.55,6.94,4.29,0,6.23-2.78,6.23-6.94V35.58h-5.72V33.9Z"/><path class="cls-4" d="M662.52,47.78c2.94,0,5.59-3.58,7.19-5.89A39.44,39.44,0,0,0,674,33.77l2.06,1.09c-1.18,2.06-2.4,4.08-3.62,6.1-1.85,3.07-4,6-7.15,7.82l13,15.4h-2.73l-12-14.72h-1V64.19h-2V33.9h2Z"/><path class="cls-5" d="M283.2,100c-4.42-3.83-9.42-7.46-15.51-7.46-7.17,0-13.05,4.91-13.05,12.37,0,5.5,2.36,9.23,11.09,14.43l5.79,3.53c11.29,6.58,16.29,10.8,16.29,19.53,0,12.17-8,19.63-20,19.63-8.34,0-14.92-3.93-19.93-10.4l3.53-2.85c3.73,5.4,9.62,9.33,16.39,9.33,8.25,0,15.12-6.09,15.12-14.53,0-6.67-.88-9.13-13.84-17l-6.58-3.93c-6.77-4.12-12.76-8.74-12.76-17.28,0-10.6,8-16.79,18.26-16.79,6.67,0,13.15,3.53,18,8Z"/><path class="cls-5" d="M305.68,125.34c0-16.1,2-36.71,21-36.71,20.81,0,20.71,24.74,20.71,36.71,0,30-9.42,36.71-20.71,36.71S305.68,155.57,305.68,125.34Zm21,32.79c9.42,0,15.8-7.36,15.8-32.79,0-26.31-6.77-32.78-15.8-32.78-10.21,0-16.1,8.44-16.1,32.78C310.59,151.75,317.86,158.13,326.69,158.13Z"/><path class="cls-5" d="M377.15,156.75h31v3.93H372.53V90h4.61Z"/></g></g></svg>