<svg viewBox="0 0 437 195" xmlns="http://www.w3.org/2000/svg"><g fill="none" fill-rule="evenodd"><g fill="#00a3db"><path d="m112.87 119.92h2.68v12.81h11.82v-12.81h2.63v28.07h-2.63v-12.86h-11.82v12.86h-2.68z"/><path d="m135.47 127.9h2.595v13.577c0 2.236.36 4.512 3.195 4.512 2.995 0 5.271-3.074 5.271-6.269v-11.82h2.596v20.09h-2.556v-2.037c0-.718.12-1.278.12-1.278h-.08c-.599 1.438-2.396 3.794-5.95 3.794-3.754 0-5.191-2.516-5.191-6.389v-14.176"/><path d="m154.31 147.99h2.596v-20.09h-2.596v20.09m-.12-24.638h2.835v-3.434h-2.835v3.434"/><path d="m161.78 144.23c.798.719 2.396 1.917 4.353 1.917 1.996 0 3.354-1.238 3.354-3.195 0-4.792-8.106-3.514-8.106-10.02 0-3.314 2.156-5.511 5.75-5.511 1.517 0 3.154.479 4.392 1.438l-.878 2.196c-.919-.718-2.277-1.318-3.554-1.318-1.797 0-3.155 1.079-3.155 3.075 0 4.832 8.106 3.514 8.106 9.943 0 3.075-1.916 5.71-5.909 5.71-2.037 0-3.994-.798-5.432-2.156l1.079-2.076"/><path d="m180.3 146.07c2.995 0 4.473-3.913 4.473-6.668v-1.678h-.999c-2.316 0-6.629.2-6.629 4.473 0 2.236 1.318 3.873 3.155 3.873m3.434-10.422h1.039v-.599c0-4.113-1.438-5.311-3.634-5.311-1.478 0-3.275.599-4.513 1.478l-.798-2.077c1.397-1.078 3.554-1.717 5.471-1.717 4.072 0 6.069 2.556 6.069 7.707v12.858h-2.396v-1.757c0-.998.08-1.717.08-1.717h-.08c-.839 1.797-2.476 3.793-5.151 3.793-2.556 0-5.191-1.797-5.191-5.909 0-6.31 6.03-6.749 9.104-6.749"/><path d="m192.4 127.9h2.556v3.075c0 .878-.08 1.557-.08 1.557h.08c.678-2.635 2.675-4.832 4.871-4.832.32 0 .559.04.839.12v2.636c-.16-.04-.479-.08-.839-.08-3.394 0-4.831 5.151-4.831 8.905v8.705h-2.596v-20.09"/><path d="m204.46 130.34h-2.037v-2.276h2.077v-5.711h2.555v5.711h3.794v2.276h-3.794v10.1c0 4.672 2.077 5.311 3.395 5.311.159 0 .479 0 .678-.08v2.396c-.119.04-.559.08-.998.08-1.917 0-5.67-.759-5.67-7.468v-10.342"/><path d="m214.16 144.23c.798.719 2.396 1.917 4.352 1.917 1.997 0 3.355-1.238 3.355-3.195 0-4.792-8.106-3.514-8.106-10.02 0-3.314 2.155-5.511 5.75-5.511 1.517 0 3.155.479 4.393 1.438l-.879 2.196c-.919-.718-2.277-1.318-3.554-1.318-1.797 0-3.155 1.079-3.155 3.075 0 4.832 8.107 3.514 8.107 9.943 0 3.075-1.917 5.71-5.911 5.71-2.036 0-3.993-.798-5.431-2.156l1.079-2.076"/><path d="m239.08 135.93c-.04-4.273-1.478-6.229-4.073-6.229-2.676 0-4.473 2.196-4.952 6.229h9.03m-4.03-8.505c4.831 0 6.668 4.392 6.668 8.944 0 .519-.04 1.039-.079 1.677h-11.581c.08 5.431 2.555 8.03 5.671 8.03 1.836 0 3.633-.759 4.871-2.077l.758 2.117c-1.237 1.317-3.513 2.356-5.87 2.356-5.071 0-8.105-4.313-8.105-10.702 0-6.27 2.994-10.342 7.667-10.342"/><path d="m245.82 127.9h2.556v2.037c0 .718-.12 1.237-.12 1.237h.08c.598-1.397 2.435-3.753 6.109-3.753 3.714 0 5.191 2.476 5.191 6.389v14.176h-2.635v-13.617c0-2.196-.36-4.472-3.155-4.472-3.234 0-5.43 3.154-5.43 6.309v11.78h-2.596v-20.09"/><path d="m271.89 146.11c3.514 0 5.631-3.514 5.631-8.266 0-4.712-2.117-8.07-5.631-8.07-3.474 0-5.591 3.354-5.591 8.07 0 4.752 2.117 8.266 5.591 8.266m.04-18.688c4.991 0 8.266 4.472 8.266 10.462 0 5.99-3.275 10.582-8.306 10.582-4.951 0-8.266-4.552-8.266-10.582 0-6.03 3.315-10.462 8.306-10.462"/><path d="m284.35 127.9h2.556v3.075c0 .878-.08 1.557-.08 1.557h.08c.678-2.635 2.675-4.832 4.872-4.832.319 0 .558.04.838.12v2.636c-.16-.04-.479-.08-.838-.08-3.395 0-4.832 5.151-4.832 8.905v8.705h-2.596v-20.09"/><path d="m306.23 137.57c0-5.87-2.036-7.707-4.592-7.707-2.915 0-4.472 2.835-4.472 7.667 0 4.832 1.756 7.907 4.711 7.907 2.317 0 4.353-1.957 4.353-7.867m-5.311 16.372c2.956 0 5.232-1.797 5.232-6.309v-1.717c0-.799.039-1.478.039-1.478h-.039c-.879 2.157-2.317 3.435-4.752 3.435-4.314 0-6.908-4.313-6.908-10.263 0-6.07 2.515-10.183 6.788-10.183 2.355 0 4.232 1.198 4.991 3.314h.04v-.678-2.157h2.436v19.607c0 6.39-3.753 8.865-7.667 8.865-1.797 0-3.634-.559-5.151-1.517l.798-2.236c1.078.758 2.836 1.317 4.193 1.317"/><path d="m318.24 146.07c2.995 0 4.473-3.913 4.473-6.668v-1.678h-.998c-2.317 0-6.629.2-6.629 4.473 0 2.236 1.317 3.873 3.154 3.873m3.435-10.422h1.038v-.599c0-4.113-1.438-5.311-3.634-5.311-1.478 0-3.275.599-4.513 1.478l-.799-2.077c1.399-1.078 3.555-1.717 5.471-1.717 4.073 0 6.07 2.556 6.07 7.707v12.858h-2.396v-1.757c0-.998.08-1.717.08-1.717h-.08c-.838 1.797-2.476 3.793-5.151 3.793-2.556 0-5.191-1.797-5.191-5.909 0-6.31 6.03-6.749 9.105-6.749"/><path d="m330.34 127.9h2.556v2.037c0 .718-.12 1.237-.12 1.237h.08c.598-1.397 2.435-3.753 6.109-3.753 3.714 0 5.191 2.476 5.191 6.389v14.176h-2.635v-13.617c0-2.196-.36-4.472-3.155-4.472-3.234 0-5.43 3.154-5.43 6.309v11.78h-2.596v-20.09"/><path d="m349.19 147.99h2.596v-20.09h-2.596v20.09m-.121-24.638h2.835v-3.434h-2.835v3.434"/><path d="m356.65 144.23c.799.719 2.396 1.917 4.353 1.917 1.996 0 3.354-1.238 3.354-3.195 0-4.792-8.106-3.514-8.106-10.02 0-3.314 2.156-5.511 5.75-5.511 1.517 0 3.154.479 4.392 1.438l-.879 2.196c-.918-.718-2.275-1.318-3.553-1.318-1.797 0-3.155 1.079-3.155 3.075 0 4.832 8.107 3.514 8.107 9.943 0 3.075-1.917 5.71-5.91 5.71-2.038 0-3.994-.798-5.431-2.156l1.078-2.076"/><path d="m375.18 146.07c2.995 0 4.473-3.913 4.473-6.668v-1.678h-.998c-2.317 0-6.629.2-6.629 4.473 0 2.236 1.317 3.873 3.154 3.873m3.435-10.422h1.038v-.599c0-4.113-1.438-5.311-3.634-5.311-1.478 0-3.275.599-4.513 1.478l-.799-2.077c1.399-1.078 3.555-1.717 5.471-1.717 4.073 0 6.07 2.556 6.07 7.707v12.858h-2.396v-1.757c0-.998.08-1.717.08-1.717h-.08c-.838 1.797-2.476 3.793-5.151 3.793-2.556 0-5.191-1.797-5.191-5.909 0-6.31 6.03-6.749 9.105-6.749"/><path d="m387.67 130.34h-2.037v-2.276h2.077v-5.711h2.556v5.711h3.793v2.276h-3.793v10.1c0 4.672 2.076 5.311 3.393 5.311.16 0 .48 0 .68-.08v2.396c-.12.04-.56.08-.999.08-1.916 0-5.67-.759-5.67-7.468v-10.342"/><path d="m397.69 147.99h2.596v-20.09h-2.596v20.09m-.12-24.638h2.835v-3.434h-2.835v3.434"/><path d="m416.18 135.93c-.04-4.273-1.478-6.229-4.073-6.229-2.676 0-4.473 2.196-4.952 6.229h9.03m-4.03-8.505c4.831 0 6.668 4.392 6.668 8.944 0 .519-.04 1.039-.079 1.677h-11.581c.08 5.431 2.555 8.03 5.671 8.03 1.836 0 3.633-.759 4.871-2.077l.758 2.117c-1.237 1.317-3.513 2.356-5.87 2.356-5.071 0-8.105-4.313-8.105-10.702 0-6.27 2.994-10.342 7.667-10.342"/><path d="m112.87 165.92h2.715l10.423 19.846c.758 1.398 1.597 3.674 1.597 3.674h.08c0 0-.2-2.276-.2-3.754v-19.766h2.556v28.07h-2.715l-10.423-19.966c-.719-1.438-1.557-3.713-1.557-3.713h-.08c0 0 .2 2.315.2 3.793v19.886h-2.596v-28.07"/><path d="m142.42 192.11c3.514 0 5.63-3.514 5.63-8.266 0-4.712-2.116-8.07-5.63-8.07-3.474 0-5.59 3.354-5.59 8.07 0 4.752 2.116 8.266 5.59 8.266m.04-18.687c4.992 0 8.266 4.471 8.266 10.461 0 5.991-3.274 10.582-8.306 10.582-4.952 0-8.266-4.552-8.266-10.582 0-6.03 3.314-10.461 8.306-10.461"/><path d="m161.82 192.11c3.514 0 5.63-3.514 5.63-8.266 0-4.712-2.116-8.07-5.63-8.07-3.474 0-5.59 3.354-5.59 8.07 0 4.752 2.116 8.266 5.59 8.266m.04-18.687c4.992 0 8.266 4.471 8.266 10.461 0 5.991-3.274 10.582-8.306 10.582-4.952 0-8.266-4.552-8.266-10.582 0-6.03 3.314-10.461 8.306-10.461"/><path d="m174 173.91h2.556v3.075c0 .878-.08 1.558-.08 1.558h.08c.678-2.636 2.675-4.832 4.871-4.832.32 0 .559.04.839.119v2.636c-.16-.04-.479-.08-.839-.08-3.394 0-4.831 5.151-4.831 8.905v8.705h-2.596v-20.09"/><path d="m191.13 192.11c2.875 0 4.712-2.436 4.712-8.146 0-4.153-1.118-8.186-4.592-8.186-3.035 0-4.712 2.995-4.712 8.186 0 4.992 1.477 8.146 4.592 8.146m-.279-18.687c2.396 0 4.112 1.197 4.951 3.154h.08c0 0-.12-.719-.12-1.558v-9.104h2.596v28.07h-2.516v-1.677c0-.879.12-1.517.12-1.517h-.08c-.679 1.957-2.316 3.673-5.271 3.673-4.552 0-6.749-4.312-6.749-10.542 0-6.349 2.476-10.501 6.989-10.501"/><path d="m203.02 183.89h8.87v-2.48h-8.87z"/><path d="m217 165.92h2.67v12.14h3.24l5.87-12.14h2.91l-6.43 13.26v.08l6.79 14.73h-2.95l-6.19-13.42h-3.24v13.42h-2.67z"/><path d="m245.07 181.93c-.04-4.272-1.478-6.229-4.073-6.229-2.676 0-4.473 2.196-4.952 6.229h9.03m-4.03-8.505c4.831 0 6.668 4.393 6.668 8.944 0 .52-.04 1.039-.079 1.677h-11.581c.08 5.432 2.555 8.03 5.671 8.03 1.836 0 3.633-.758 4.871-2.077l.758 2.117c-1.237 1.318-3.513 2.356-5.87 2.356-5.071 0-8.105-4.312-8.105-10.702 0-6.27 2.994-10.342 7.667-10.342"/><path d="m251.53 173.91h2.556v2.037c0 .719-.12 1.237-.12 1.237h.08c.598-1.397 2.435-3.753 6.109-3.753 3.714 0 5.191 2.476 5.191 6.389v14.176h-2.635v-13.616c0-2.197-.36-4.473-3.155-4.473-3.234 0-5.43 3.154-5.43 6.31v11.779h-2.596v-20.09"/><path d="m270.09 173.91h2.556v2.037c0 .719-.12 1.237-.12 1.237h.08c.598-1.397 2.435-3.753 6.109-3.753 3.714 0 5.191 2.476 5.191 6.389v14.176h-2.635v-13.616c0-2.197-.36-4.473-3.155-4.473-3.234 0-5.43 3.154-5.43 6.31v11.779h-2.596v-20.09"/><path d="m299.36 181.93c-.04-4.272-1.478-6.229-4.073-6.229-2.676 0-4.473 2.196-4.952 6.229h9.02m-4.03-8.505c4.831 0 6.668 4.393 6.668 8.944 0 .52-.04 1.039-.079 1.677h-11.581c.08 5.432 2.555 8.03 5.671 8.03 1.836 0 3.633-.758 4.871-2.077l.758 2.117c-1.237 1.318-3.513 2.356-5.87 2.356-5.071 0-8.105-4.312-8.105-10.702 0-6.27 2.994-10.342 7.667-10.342"/><path d="m305.83 173.91h2.556v2.037c0 .719-.12 1.237-.12 1.237h.08c.558-1.277 2.116-3.753 5.75-3.753 2.595 0 3.953 1.478 4.512 3.753h.12c.639-1.397 2.276-3.753 5.831-3.753 3.433 0 4.831 2.476 4.831 6.389v14.176h-2.635v-13.577c0-2.236-.4-4.512-2.915-4.512-2.836 0-4.952 2.835-4.952 6.149v11.94h-2.596v-13.577c0-2.276-.44-4.512-2.915-4.512-2.875 0-4.951 2.915-4.951 6.27v11.819h-2.596v-20.09"/><path d="m344.84 181.93c-.04-4.272-1.478-6.229-4.073-6.229-2.676 0-4.473 2.196-4.952 6.229h9.02m-4.03-8.505c4.831 0 6.668 4.393 6.668 8.944 0 .52-.04 1.039-.079 1.677h-11.581c.08 5.432 2.555 8.03 5.671 8.03 1.836 0 3.633-.758 4.871-2.077l.758 2.117c-1.237 1.318-3.513 2.356-5.87 2.356-5.071 0-8.105-4.312-8.105-10.702 0-6.27 2.994-10.342 7.667-10.342"/><path d="m351.3 173.91h2.556v3.075c0 .878-.08 1.558-.08 1.558h.08c.678-2.636 2.675-4.832 4.872-4.832.319 0 .558.04.838.119v2.636c-.16-.04-.479-.08-.838-.08-3.395 0-4.832 5.151-4.832 8.905v8.705h-2.596v-20.09"/><path d="m362.68 165.92h2.636v22.721c0 2.715.798 3.114 1.717 3.114.199 0 .359 0 .519-.04v2.357c-.24.04-.479.08-.919.08-1.517 0-3.953-.52-3.953-4.912v-23.32"/><path d="m375.14 192.07c2.995 0 4.473-3.913 4.473-6.668v-1.678h-.998c-2.317 0-6.629.2-6.629 4.473 0 2.236 1.317 3.873 3.154 3.873m3.435-10.422h1.038v-.599c0-4.113-1.438-5.311-3.634-5.311-1.478 0-3.275.6-4.513 1.478l-.799-2.077c1.399-1.078 3.555-1.716 5.471-1.716 4.073 0 6.07 2.555 6.07 7.706v12.858h-2.396v-1.757c0-.998.08-1.717.08-1.717h-.08c-.838 1.797-2.476 3.793-5.151 3.793-2.556 0-5.191-1.797-5.191-5.909 0-6.309 6.03-6.749 9.105-6.749"/><path d="m386.95 173.91h2.556v2.037c0 .719-.12 1.237-.12 1.237h.08c.598-1.397 2.435-3.753 6.109-3.753 3.714 0 5.191 2.476 5.191 6.389v14.176h-2.635v-13.616c0-2.197-.36-4.473-3.155-4.473-3.234 0-5.43 3.154-5.43 6.31v11.779h-2.596v-20.09"/><path d="m411.83 192.11c2.875 0 4.712-2.436 4.712-8.146 0-4.153-1.118-8.186-4.593-8.186-3.034 0-4.712 2.995-4.712 8.186 0 4.992 1.478 8.146 4.593 8.146m-.28-18.687c2.396 0 4.113 1.197 4.952 3.154h.08c0 0-.12-.719-.12-1.558v-9.104h2.596v28.07h-2.516v-1.677c0-.879.119-1.517.119-1.517h-.079c-.68 1.957-2.316 3.673-5.272 3.673-4.552 0-6.748-4.312-6.748-10.542 0-6.349 2.476-10.501 6.988-10.501"/><path d="m168.32 67.14h-.006l-26.11.003h-.017v-26.12c0-1.623.595-3.105 1.575-4.247 1.198-1.396 2.971-2.284 4.954-2.284h19.597c1.903 0 3.61.819 4.803 2.118 1.068 1.163 1.726 2.709 1.726 4.413v19.593c0 1.885-.804 3.578-2.081 4.769-1.165 1.087-2.723 1.758-4.44 1.76m30.536-56.28c-3.15-3.238-7.497-5.307-12.329-5.496l-55.3-.038c-5.207 0-9.887 2.198-13.201 5.703-3.081 3.26-4.982 7.648-4.983 12.49l-.002 72.78h.005 72.77.014c4.929-.008 9.389-1.979 12.663-5.163 3.398-3.306 5.515-7.92 5.515-13.03v-54.58c0-4.927-1.962-9.389-5.144-12.659"/></g><g fill="#004971"><path d="m106.51 22.376v56.1 19.13c0 1.034-.388 1.939-1.164 2.714-.775.776-1.724 1.164-2.843 1.164h-28.437c-1.12 0-2.068-.388-2.843-1.164-.776-.775-1.163-1.68-1.163-2.714v-34.511h-32.961v34.511c0 1.034-.388 1.939-1.163 2.714-.776.776-1.725 1.164-2.844 1.164h-28.436c-1.035 0-1.94-.388-2.715-1.164-.775-.775-1.163-1.68-1.163-2.714v-93.58c0-1.034.388-1.939 1.163-2.714.775-.776 1.68-1.163 2.715-1.163h28.436c1.119 0 2.068.387 2.844 1.163.775.775 1.163 1.68 1.163 2.714v32.444h32.961v-32.444c0-1.034.387-1.939 1.163-2.714.775-.776 1.723-1.163 2.843-1.163h51.35c0 0-18.903-2.143-18.903 22.23"/><path d="m210.5 78.47v-56.1-18.352c0-1.034.388-1.939 1.164-2.714.775-.776 1.68-1.164 2.714-1.164h28.694c.518 0 1.142.174 1.875.517.731.346 1.183.734 1.357 1.163 3.792 5.171 7.475 10.192 11.05 15.06 3.574 4.869 7.216 9.759 10.922 14.671 2.498 3.275 4.954 6.572 7.368 9.888 2.411 3.318 4.867 6.701 7.367 10.147v-47.567c0-1.034.388-1.939 1.163-2.714.776-.776 1.723-1.164 2.844-1.164h25.2c1.119 0 2.068.388 2.844 1.164.775.775 1.163 1.68 1.163 2.714v93.58c0 1.034-.388 1.939-1.163 2.714-.776.776-1.725 1.164-2.844 1.164h-28.953c-.433 0-.992-.15-1.681-.452-.691-.302-1.207-.667-1.55-1.099l-36.451-49.12v46.791c0 1.034-.388 1.939-1.164 2.714-.775.776-1.725 1.164-2.843 1.164h-44.724c0 0 15.602.335 15.641-23.01"/><path d="m325.79 101.48c-1.034 0-1.938-.388-2.714-1.164-.776-.775-1.164-1.68-1.164-2.714v-93.58c0-1.034.388-1.939 1.164-2.714.776-.775 1.68-1.163 2.714-1.163h28.05c1.034 0 1.939.388 2.715 1.163.775.775 1.162 1.68 1.162 2.714v33.83l30.947-36.421c.259-.259.731-.538 1.422-.841.688-.3 1.206-.452 1.551-.452h32.427c.861 0 1.636.216 2.326.646.689.432 1.184.992 1.487 1.681.301.691.408 1.421.323 2.197-.087.775-.432 1.466-1.034 2.068l-42.41 41.592 47.09 46.31c.689.691 1.118 1.422 1.293 2.198.171.775.106 1.509-.195 2.197-.303.691-.775 1.25-1.421 1.681-.646.432-1.444.646-2.391.646h-39.555c-.346 0-.84-.129-1.486-.388-.646-.258-1.099-.473-1.357-.646l-29.02-36.36v33.642c0 1.034-.387 1.939-1.162 2.714-.776.776-1.681 1.164-2.715 1.164h-28.05"/></g><path d="m433.62 42.3l-13.01-13.01c-3.321-3.321-8.706-3.321-12.03 0l-5.092 5.092-.036-.036-13.966 13.965 13.966 13.966.036-.037 5.092 5.093c3.321 3.321 8.706 3.321 12.03 0l13.01-13.01c3.321-3.321 3.321-8.705 0-12.03" fill="#00a3db"/></g></svg>